<svg width="81" height="81" viewBox="0 0 81 81" fill="none" xmlns="http://www.w3.org/2000/svg">
<circle cx="40.5" cy="40.5" r="40" stroke="white"/>
<path d="M39.72 56.52C45.12 56.52 49.56 53.4 49.56 48.08C49.56 44.12 46.88 41.56 43.48 40.72V40.52C46.6 39.36 48.56 37 48.56 33.6C48.56 28.76 44.84 26 39.56 26C36.16 26 33.44 27.48 31.12 29.56L33.52 32.44C35.2 30.8 37.12 29.72 39.4 29.68C42.2 29.72 43.92 31.32 43.92 33.92C43.92 36.88 42 39.08 36.2 39.08V42.48C42.84 42.48 44.92 44.6 44.92 47.84C44.92 50.92 42.64 52.76 39.32 52.76C36.28 52.76 34.08 51.28 32.36 49.52L30.12 52.48C32.08 54.68 35.08 56.52 39.72 56.52Z" fill="white"/>
</svg>
